# xmcd CD database file
#
# Track frame offsets:
#	150
#	19563
#	32472
#	47873
#	63642
#	79386
#	97055
#	112083
#	138781
#	153276
#	166460
#
# Disc length: 2377 seconds
#
# Revision: 0
# Processed by: cddbd v1.5.2PL0 Copyright (c) Steve Scherf et al.
# Submitted via: CDex 1.51
#
DISCID=8d09470b
DTITLE=Suzanne Vega - KCRW Morning Becomes Eclectic, JUL 20, 2007
DYEAR=2007
DGENRE=Blues
TTITLE0=Suzanne Vega - Marlene On The Wall
TTITLE1=Suzanne Vega - Frank and Ava
TTITLE2=Suzanne Vega - New York Is A Woman
TTITLE3=Suzanne Vega - Ludlow Street
TTITLE4=Suzanne Vega - Zephyr and I
TTITLE5=Suzanne Vega - Pornographer's Dream
TTITLE6=Suzanne Vega - Angel's Doorway
TTITLE7=Suzanne Vega - Tom's Diner
TTITLE8=Suzanne Vega - Zephyr and I
TTITLE9=Suzanne Vega - New York Is A Woman
TTITLE10=Suzanne Vega - Frank and Ava
EXTD=YEAR: 2007
EXTT0=
EXTT1=
EXTT2=
EXTT3=
EXTT4=
EXTT5=
EXTT6=
EXTT7=
EXTT8=
EXTT9=
EXTT10=
PLAYORDER=
